<svg width="43" height="23" viewBox="0 0 43 23" fill="none" xmlns="http://www.w3.org/2000/svg">
<rect width="25.0522" height="2.99852" rx="1.49926" transform="matrix(0.485262 0.874369 -0.930918 0.365228 22.3 0)" fill="#FF48A0"/>
<rect width="24.8639" height="2.99852" rx="1.49926" transform="matrix(-0.485262 0.874369 0.930918 0.365228 20.371 0)" fill="#FF48A0"/>
<path d="M11.2947 21.1504C11.2947 20.4352 10.715 19.8555 9.99979 19.8555L1.2952 19.8555C0.580025 19.8555 0.000259339 20.4352 0.000259265 21.1504V21.1504C0.00025919 21.8656 0.580026 22.4454 1.2952 22.4454L9.9998 22.4454C10.715 22.4454 11.2947 21.8656 11.2947 21.1504V21.1504Z" fill="#FF48A0"/>
<path d="M42.5 21.2949C42.5 20.5798 41.9202 20 41.2051 20L32.5005 20C31.7853 20 31.2055 20.5798 31.2055 21.2949V21.2949C31.2055 22.0101 31.7853 22.5899 32.5005 22.5899L41.2051 22.5899C41.9202 22.5899 42.5 22.0101 42.5 21.2949V21.2949Z" fill="#FF48A0"/>
</svg>
