<svg width="64" height="50" viewBox="0 0 64 50" fill="none" xmlns="http://www.w3.org/2000/svg">
<path d="M8.34175 42.9362C7.604 42.9362 6.91412 42.7424 6.32487 42.4016L23.706 27.2539L25.3284 28.6656C26.6863 29.8456 28.3859 30.4431 30.0696 30.4431C31.7616 30.4431 33.4613 29.8456 34.8191 28.6656L36.4408 27.2539L42.325 32.3836C42.9905 31.2623 43.8174 30.2519 44.7766 29.3789L39.39 24.6855L55.8721 10.306V26.1915C57.4046 26.471 58.8416 27.019 60.1391 27.7852V8.34275C60.1391 7.79225 60.0854 7.2475 59.9846 6.72038C59.7128 5.35475 59.1076 4.10513 58.2624 3.07275C58.0836 2.84775 57.8972 2.64638 57.6949 2.445C56.1976 0.93925 54.0944 0 51.7971 0H8.34175C6.04463 0 3.94975 0.93925 2.444 2.445C2.2425 2.64638 2.05625 2.84775 1.8775 3.07275C1.0315 4.10513 0.426375 5.35475 0.162875 6.72038C0.05375 7.2475 0 7.79225 0 8.34275V38.863C0 40.0339 0.248375 41.1594 0.69075 42.1757C1.10113 43.146 1.70712 44.0239 2.444 44.7599C2.63037 44.9462 2.81663 45.1174 3.01813 45.2879C4.46175 46.483 6.32487 47.2049 8.34175 47.2049H43.4019C42.3871 45.9509 41.5974 44.509 41.1004 42.9361H8.34175V42.9362ZM5.46212 5.46312C6.20737 4.71862 7.20875 4.268 8.34175 4.268H51.7974C52.9305 4.268 53.9401 4.71875 54.677 5.46312C54.8079 5.59575 54.9323 5.7435 55.0421 5.89037L32.266 25.7406C31.6374 26.2913 30.861 26.5632 30.0696 26.5632C29.2858 26.5632 28.5101 26.2913 27.8731 25.7406L5.10625 5.882C5.207 5.73513 5.33125 5.59575 5.46212 5.46312ZM4.267 38.8631V10.2984L20.75 24.6772L4.27537 39.041C4.267 38.9865 4.267 38.9253 4.267 38.8631Z" fill="#4B4B4B"/>
<path d="M53.5356 28.5488C47.7563 28.5488 43.0729 33.2338 43.0729 39.0132C43.0729 44.7917 47.7563 49.4767 53.5356 49.4767C59.3159 49.4767 64 44.7917 64 39.0132C64 33.2337 59.3159 28.5488 53.5356 28.5488ZM52.9421 43.9012L47.9399 39.8986L49.8392 37.5258L52.4352 39.6031L56.8071 33.9798L59.2084 35.8456L52.9421 43.9012Z" fill="#4B4B4B"/>
</svg>
