<svg width="59" height="59" viewBox="0 0 59 59" fill="none" xmlns="http://www.w3.org/2000/svg">
<path d="M54.2774 14.9965C52.0327 12.6967 49.0616 11.0981 45.7507 10.5205C44.7414 7.80394 43.036 5.4302 40.8394 3.63317C38.0695 1.36624 34.5021 -0.00171923 30.6447 1.62166e-06C26.748 -0.00171923 23.1451 1.39297 20.3627 3.70258C18.2729 5.43376 16.6263 7.68382 15.6205 10.2597C11.325 10.2792 7.41067 12.0344 4.59627 14.8523C1.76238 17.6828 -0.00183414 21.6265 1.43097e-06 25.9504C-0.00183414 30.2734 1.76238 34.2173 4.59616 37.0477C7.42661 39.8825 11.3695 41.6466 15.6935 41.6448C17.0509 41.6448 18.911 41.6448 21.0391 41.6448V35.4571C18.911 35.4571 17.0508 35.4571 15.6935 35.4571C13.059 35.4553 10.7021 34.3979 8.97171 32.6722C7.24673 30.9418 6.18944 28.5869 6.1876 25.9504C6.18944 23.315 7.24673 20.958 8.97171 19.2279C10.7021 17.5038 13.0588 16.4464 15.6935 16.4447C16.2239 16.4447 16.7668 16.4997 17.3347 16.5977L20.3074 17.1175L20.9002 14.159C21.3541 11.8903 22.5859 9.89649 24.3091 8.46796C26.0358 7.03954 28.2254 6.18944 30.6445 6.18772C33.0388 6.18944 35.2052 7.02256 36.923 8.42436C38.639 9.82697 39.8744 11.7878 40.3569 14.0201L40.8696 16.3966L43.2994 16.4606C45.8716 16.5292 48.1698 17.6061 49.8503 19.3212C51.5253 21.0417 52.5489 23.3595 52.5507 25.9504C52.5489 28.5868 51.4916 30.9418 49.7666 32.6722C48.0364 34.3979 45.6795 35.4553 43.045 35.4571C41.6992 35.4571 39.8372 35.4571 37.7011 35.4571V41.6448C39.8372 41.6448 41.6992 41.6448 43.045 41.6448C47.3688 41.6466 51.3118 39.8824 54.1422 37.0477C56.9761 34.2173 58.7402 30.2752 58.7383 25.9504C58.7402 21.6969 57.033 17.8118 54.2774 14.9965Z" fill="#4B4B4B"/>
<path d="M34.0555 25.4951H24.6849V45.6745H18.661L29.3702 58.3631L40.0794 45.6745H34.0555V25.4951Z" fill="#4B4B4B"/>
</svg>
